<svg version="1.1" xmlns="http://www.w3.org/2000/svg" xmlns:xlink="http://www.w3.org/1999/xlink" x="0px" y="0px" viewBox="0 0 111.7 28.8" style="enable-background:new 0 0 111.7 28.8;" xml:space="preserve"><path d="M0,14.4h1.8L6,24.6l4.4-10.1h0.3L15,24.6l4.2-10.1h1.8l-5.9,14h-0.3l-4.3-10l-4.4,10H5.8L0,14.4z"/>		<path d="M23.9,21.6c0.1,3.2,2.2,5.6,5.1,5.6c2.8,0,4.2-1.7,5.2-3.3l1.5,0.8c-1.4,2.8-3.5,4.2-6.5,4.2			c-4.5,0-7.1-3.6-7.1-7.3c0-3.8,2.7-7.4,7-7.4c3.9,0,7,2.9,7.1,7.5H23.9z M34.3,20c-0.7-2.9-2.7-4.2-5.1-4.2			c-2.4,0-4.3,1.3-5.1,4.2H34.3z"/><path d="M52.6,17.3l-2.8,1.6c-0.5-0.6-1.1-1-1.6-1.2c-0.5-0.2-1.1-0.3-1.8-0.3c-1.3,0-2.3,0.4-3.1,1.2			c-0.8,0.8-1.2,1.8-1.2,3c0,1.2,0.4,2.2,1.1,2.9c0.8,0.8,1.8,1.1,3,1.1c1.5,0,2.7-0.5,3.6-1.6l2.7,1.9c-1.5,2-3.5,2.9-6.2,2.9			c-2.4,0-4.3-0.7-5.6-2.2c-1.4-1.5-2-3.2-2-5.1c0-1.4,0.3-2.6,1-3.7c0.7-1.1,1.6-2,2.8-2.7c1.2-0.7,2.5-1,4-1			c1.4,0,2.6,0.3,3.6,0.8C51,15.5,51.9,16.3,52.6,17.3z"/><path d="M55.3,9h3.4v19.4h-3.4V9z"/><path d="M63.2,8.7c0.6,0,1.1,0.2,1.5,0.7c0.4,0.4,0.6,1,0.6,1.6c0,0.6-0.2,1.2-0.6,1.6c-0.4,0.4-0.9,0.7-1.5,0.7			c-0.6,0-1.1-0.2-1.6-0.7c-0.4-0.4-0.6-1-0.6-1.6c0-0.6,0.2-1.1,0.6-1.6C62,8.9,62.6,8.7,63.2,8.7z M61.4,14.4h3.4v14h-3.4V14.4z"			/><path d="M81.3,17.3l-2.8,1.6c-0.5-0.6-1.1-1-1.6-1.2c-0.5-0.2-1.1-0.3-1.8-0.3c-1.3,0-2.3,0.4-3.1,1.2			c-0.8,0.8-1.2,1.8-1.2,3c0,1.2,0.4,2.2,1.1,2.9c0.8,0.8,1.8,1.1,3,1.1c1.5,0,2.7-0.5,3.6-1.6l2.7,1.9c-1.5,2-3.5,2.9-6.2,2.9			c-2.4,0-4.3-0.7-5.6-2.2c-1.4-1.5-2-3.2-2-5.1c0-1.4,0.3-2.6,1-3.7c0.7-1.1,1.6-2,2.8-2.7c1.2-0.7,2.5-1,4-1			c1.4,0,2.6,0.3,3.6,0.8C79.8,15.5,80.6,16.3,81.3,17.3z"/><path d="M83.1,9h3.4v11.2l5-5.8h4.3L90,21.1l6.6,7.3h-4.2L86.6,22v6.4h-3.4V9z"/><path fill="#94c945" d="M102.7,0c-0.4,0-0.8,0.3-0.9,0.7l-0.6,1.9c-0.1,0.4,0,0.9,0.3,1.2l2.2,2.2c0.3,0.3,0.7,0.3,1,0l2.2-2.2			c0.3-0.3,0.4-0.8,0.3-1.2l-0.6-1.9C106.5,0.3,106,0,105.6,0H102.7z M108,4.8L105.7,7c-0.3,0.3-0.3,0.7,0,1l2.2,2.2			c0.3,0.3,0.8,0.4,1.2,0.3l1.9-0.6c0.4-0.1,0.7-0.5,0.7-0.9V8.3V6.8V6.1c0-0.4-0.3-0.8-0.7-0.9l-1.9-0.6c-0.1,0-0.2,0-0.3,0			C108.5,4.5,108.2,4.6,108,4.8 M99.2,4.5l-1.9,0.6c-0.4,0.1-0.7,0.6-0.7,0.9v0.7v1.4V9c0,0.4,0.3,0.8,0.7,0.9l1.9,0.6			c0.4,0.1,0.9,0,1.2-0.3l2.2-2.2c0.3-0.3,0.3-0.7,0-1l-2.2-2.2c-0.2-0.2-0.6-0.3-0.9-0.3C99.4,4.5,99.3,4.5,99.2,4.5 M103.7,9.1			l-2.2,2.2c-0.3,0.3-0.4,0.8-0.3,1.2l0.6,1.9c0.1,0.4,0.6,0.7,0.9,0.7h0.7h1.4h0.7c0.4,0,0.8-0.3,0.9-0.7l0.6-1.9			c0.1-0.4,0-0.9-0.3-1.2l-2.2-2.2c-0.1-0.1-0.3-0.2-0.5-0.2C104,8.9,103.8,9,103.7,9.1"/></svg>